<svg width="781" height="325" viewBox="0 0 781 325" fill="none" xmlns="http://www.w3.org/2000/svg">
<path d="M325 162.5L361.325 282H20C8.95431 282 3.14096e-07 273.046 0 262V199.415L31.5225 177.275C40.0274 171.302 40.0274 158.699 31.5225 152.726L0 130.585V64C0 52.9543 8.95431 44 20 44H361.021L325 162.5Z" fill="#1E3A8A"/>
<path d="M162.78 173.66L170.76 115H205.9L189.52 220H145.56L137.86 181.36H135.9L128.34 220H84.52L68 115H103.14L110.98 173.66H111.96L124.14 115H149.76L161.8 173.66H162.78ZM281.549 156.02V180.38H247.949V193.12H289.109V220H214.349V115H288.269L284.069 141.88H247.949V156.02H281.549Z" fill="white"/>
<path d="M406.527 220H386.225C385.697 220 385.434 219.707 385.434 219.121V116.465H362.055C361.469 116.465 361.176 116.172 361.176 115.586L361.352 95.459C361.352 94.9902 361.586 94.7559 362.055 94.7559H430.434C431.078 94.7559 431.4 94.9902 431.4 95.459V115.586C431.4 116.172 431.166 116.465 430.697 116.465H407.055L407.23 219.121C407.23 219.707 406.996 220 406.527 220ZM461.459 220H441.068C440.482 220 440.189 219.707 440.189 219.121L440.365 95.459C440.365 94.9902 440.6 94.7559 441.068 94.7559H461.283C461.752 94.7559 461.986 94.9902 461.986 95.459L462.162 219.121C462.162 219.707 461.928 220 461.459 220ZM511.117 221.758C504.613 221.758 498.666 220.117 493.275 216.836C487.943 213.555 483.695 209.16 480.531 203.652C477.426 198.086 475.873 191.904 475.873 185.107L476.049 128.945C476.049 122.266 477.572 116.23 480.619 110.84C483.666 105.391 487.855 101.025 493.188 97.7441C498.578 94.4043 504.555 92.7344 511.117 92.7344C517.797 92.7344 523.744 94.3457 528.959 97.5684C534.232 100.791 538.422 105.156 541.527 110.664C544.691 116.113 546.273 122.207 546.273 128.945V137.207C546.273 137.676 546.039 137.91 545.57 137.91H525.355C524.887 137.91 524.652 137.676 524.652 137.207V128.945C524.652 124.961 523.363 121.533 520.785 118.662C518.207 115.791 514.984 114.355 511.117 114.355C506.84 114.355 503.559 115.82 501.273 118.75C498.988 121.68 497.846 125.078 497.846 128.945V185.107C497.846 189.502 499.135 193.105 501.713 195.918C504.291 198.672 507.426 200.049 511.117 200.049C514.984 200.049 518.207 198.525 520.785 195.479C523.363 192.373 524.652 188.916 524.652 185.107V176.758C524.652 176.289 524.887 176.055 525.355 176.055H545.746C546.215 176.055 546.449 176.289 546.449 176.758V185.107C546.449 191.846 544.867 197.998 541.703 203.564C538.48 209.072 534.232 213.496 528.959 216.836C523.686 220.117 517.738 221.758 511.117 221.758ZM580.639 220H560.248C559.779 220 559.545 219.707 559.545 219.121L559.896 95.6348C559.896 95.0488 560.131 94.7559 560.6 94.7559H580.814C581.283 94.7559 581.518 95.0488 581.518 95.6348V138.262L609.73 95.459C610.199 94.9902 610.639 94.7559 611.049 94.7559H631.703C632.23 94.7559 632.348 94.9902 632.055 95.459L600.941 145.117L635.834 219.297C636.127 219.766 635.834 220 634.955 220H612.982C612.396 220 612.045 219.766 611.928 219.297L587.582 166.387L581.342 176.23V219.121C581.342 219.707 581.107 220 580.639 220ZM699.115 220H640.932C640.463 220 640.229 219.707 640.229 219.121L640.404 95.459C640.404 94.9902 640.639 94.7559 641.107 94.7559H698.939C699.408 94.7559 699.643 95.0488 699.643 95.6348V115.762C699.643 116.23 699.408 116.465 698.939 116.465H662.025V144.59H698.939C699.408 144.59 699.643 144.824 699.643 145.293L699.818 165.684C699.818 166.152 699.584 166.387 699.115 166.387H662.025V197.852H699.115C699.584 197.852 699.818 198.145 699.818 198.73V219.297C699.818 219.766 699.584 220 699.115 220ZM754.223 220H733.92C733.393 220 733.129 219.707 733.129 219.121V116.465H709.75C709.164 116.465 708.871 116.172 708.871 115.586L709.047 95.459C709.047 94.9902 709.281 94.7559 709.75 94.7559H778.129C778.773 94.7559 779.096 94.9902 779.096 95.459V115.586C779.096 116.172 778.861 116.465 778.393 116.465H754.75L754.926 219.121C754.926 219.707 754.691 220 754.223 220Z" fill="#1E3A8A"/>
</svg>
