<svg width="362" height="238" viewBox="0 0 362 238" fill="none" xmlns="http://www.w3.org/2000/svg">
<path d="M325 118.5L361.325 238H20C8.95431 238 3.14096e-07 229.046 0 218V155.415L31.5225 133.275C40.0274 127.302 40.0274 114.699 31.5225 108.726L0 86.585V20C0 8.95431 8.95431 0 20 0H361.021L325 118.5Z" fill="#1E3A8A"/>
<path d="M162.78 129.66L170.76 71H205.9L189.52 176H145.56L137.86 137.36H135.9L128.34 176H84.52L68 71H103.14L110.98 129.66H111.96L124.14 71H149.76L161.8 129.66H162.78ZM281.549 112.02V136.38H247.949V149.12H289.109V176H214.349V71H288.269L284.069 97.88H247.949V112.02H281.549Z" fill="white"/>
</svg>
