<svg width="516" height="446" viewBox="0 0 516 446" fill="none" xmlns="http://www.w3.org/2000/svg">
<path d="M402 118.5L438.325 238H97C85.9543 238 77 229.046 77 218V155.415L108.522 133.275C117.027 127.302 117.027 114.699 108.522 108.726L77 86.585V20C77 8.95431 85.9543 0 97 0H438.021L402 118.5Z" fill="#1E3A8A"/>
<path d="M239.78 129.66L247.76 71H282.9L266.52 176H222.56L214.86 137.36H212.9L205.34 176H161.52L145 71H180.14L187.98 129.66H188.96L201.14 71H226.76L238.8 129.66H239.78ZM358.549 112.02V136.38H324.949V149.12H366.109V176H291.349V71H365.269L361.069 97.88H324.949V112.02H358.549Z" fill="white"/>
<path d="M35.4102 364H18.457C18.0469 364 17.819 363.772 17.7734 363.316L1.23047 267.135C1.13932 266.77 1.27604 266.588 1.64062 266.588H17.3633C17.7279 266.588 17.9557 266.77 18.0469 267.135L27.002 330.367L36.2305 267.135C36.3216 266.77 36.5951 266.588 37.0508 266.588H49.6973C50.0618 266.588 50.2897 266.77 50.3809 267.135L59.4727 330.367L68.5645 267.135C68.6556 266.77 68.8835 266.588 69.248 266.588H84.834C85.2897 266.588 85.472 266.77 85.3809 267.135L68.7012 363.316C68.6556 363.499 68.5189 363.658 68.291 363.795L68.0176 364H51.0645C50.791 364 50.5632 363.772 50.3809 363.316L43.2031 313.072L36.0938 363.316C36.0482 363.772 35.8203 364 35.4102 364ZM139.385 364H94.1309C93.7663 364 93.584 363.772 93.584 363.316L93.7207 267.135C93.7207 266.77 93.903 266.588 94.2676 266.588H139.248C139.613 266.588 139.795 266.816 139.795 267.271V282.926C139.795 283.29 139.613 283.473 139.248 283.473H110.537V305.348H139.248C139.613 305.348 139.795 305.53 139.795 305.895L139.932 321.754C139.932 322.118 139.749 322.301 139.385 322.301H110.537V346.773H139.385C139.749 346.773 139.932 347.001 139.932 347.457V363.453C139.932 363.818 139.749 364 139.385 364ZM180.605 323.531H153.535C153.079 323.531 152.852 323.349 152.852 322.984V307.74C152.852 307.376 153.079 307.193 153.535 307.193H180.605C181.061 307.193 181.289 307.376 181.289 307.74V322.984C181.289 323.349 181.061 323.531 180.605 323.531ZM224.629 364H208.838C208.428 364 208.223 363.772 208.223 363.316V283.473H190.039C189.583 283.473 189.355 283.245 189.355 282.789L189.492 267.135C189.492 266.77 189.674 266.588 190.039 266.588H243.223C243.724 266.588 243.975 266.77 243.975 267.135V282.789C243.975 283.245 243.792 283.473 243.428 283.473H225.039L225.176 363.316C225.176 363.772 224.993 364 224.629 364ZM267.354 364H251.494C251.038 364 250.811 363.772 250.811 363.316L250.947 267.135C250.947 266.77 251.13 266.588 251.494 266.588H267.217C267.581 266.588 267.764 266.77 267.764 267.135L267.9 363.316C267.9 363.772 267.718 364 267.354 364ZM305.977 365.367C300.918 365.367 296.292 364.091 292.1 361.539C287.952 358.987 284.648 355.569 282.188 351.285C279.772 346.956 278.564 342.148 278.564 336.861L278.701 293.18C278.701 287.984 279.886 283.29 282.256 279.098C284.626 274.859 287.884 271.464 292.031 268.912C296.224 266.314 300.872 265.016 305.977 265.016C311.172 265.016 315.798 266.269 319.854 268.775C323.955 271.282 327.214 274.677 329.629 278.961C332.09 283.199 333.32 287.939 333.32 293.18V299.605C333.32 299.97 333.138 300.152 332.773 300.152H317.051C316.686 300.152 316.504 299.97 316.504 299.605V293.18C316.504 290.081 315.501 287.415 313.496 285.182C311.491 282.949 308.984 281.832 305.977 281.832C302.65 281.832 300.098 282.971 298.32 285.25C296.543 287.529 295.654 290.172 295.654 293.18V336.861C295.654 340.279 296.657 343.082 298.662 345.27C300.667 347.411 303.105 348.482 305.977 348.482C308.984 348.482 311.491 347.298 313.496 344.928C315.501 342.512 316.504 339.824 316.504 336.861V330.367C316.504 330.003 316.686 329.82 317.051 329.82H332.91C333.275 329.82 333.457 330.003 333.457 330.367V336.861C333.457 342.102 332.227 346.887 329.766 351.217C327.259 355.501 323.955 358.941 319.854 361.539C315.752 364.091 311.126 365.367 305.977 365.367ZM360.049 364H344.189C343.825 364 343.643 363.772 343.643 363.316L343.916 267.271C343.916 266.816 344.098 266.588 344.463 266.588H360.186C360.55 266.588 360.732 266.816 360.732 267.271V300.426L382.676 267.135C383.04 266.77 383.382 266.588 383.701 266.588H399.766C400.176 266.588 400.267 266.77 400.039 267.135L375.84 305.758L402.979 363.453C403.206 363.818 402.979 364 402.295 364H385.205C384.749 364 384.476 363.818 384.385 363.453L365.449 322.301L360.596 329.957V363.316C360.596 363.772 360.413 364 360.049 364ZM452.197 364H406.943C406.579 364 406.396 363.772 406.396 363.316L406.533 267.135C406.533 266.77 406.715 266.588 407.08 266.588H452.061C452.425 266.588 452.607 266.816 452.607 267.271V282.926C452.607 283.29 452.425 283.473 452.061 283.473H423.35V305.348H452.061C452.425 305.348 452.607 305.53 452.607 305.895L452.744 321.754C452.744 322.118 452.562 322.301 452.197 322.301H423.35V346.773H452.197C452.562 346.773 452.744 347.001 452.744 347.457V363.453C452.744 363.818 452.562 364 452.197 364ZM495.059 364H479.268C478.857 364 478.652 363.772 478.652 363.316V283.473H460.469C460.013 283.473 459.785 283.245 459.785 282.789L459.922 267.135C459.922 266.77 460.104 266.588 460.469 266.588H513.652C514.154 266.588 514.404 266.77 514.404 267.135V282.789C514.404 283.245 514.222 283.473 513.857 283.473H495.469L495.605 363.316C495.605 363.772 495.423 364 495.059 364Z" fill="#1E3A8A"/>
</svg>
